<svg xmlns="http://www.w3.org/2000/svg" version="1.1" viewBox="-5.0 -10.0 110.0 135.0">
 <path d="m41.668 11.457c0-1.1484 0.93359-2.082 2.082-2.082s2.082 0.93359 2.082 2.082c0 1.1484-0.93359 2.082-2.082 2.082s-2.082-0.93359-2.082-2.082zm20.832 17.707h-22.918c-0.57422 0-1.043 0.46484-1.043 1.043 0 0.57422 0.46484 1.043 1.043 1.043h22.918c0.57422 0 1.043-0.46484 1.043-1.043 0-0.57422-0.46484-1.043-1.043-1.043zm-22.918 8.332h18.75c0.57422 0 1.043-0.46484 1.043-1.043 0-0.57422-0.46484-1.043-1.043-1.043h-18.75c-0.57422 0-1.043 0.46484-1.043 1.043 0 0.57422 0.46484 1.043 1.043 1.043zm-5.207-6.25v4.168c0 1.7227-1.4023 3.125-3.125 3.125h-4.168c-1.7227 0-3.125-1.4023-3.125-3.125v-4.168c0-1.7227 1.4023-3.125 3.125-3.125h4.168c1.7227 0 3.125 1.4023 3.125 3.125zm-2.082 0c0-0.57422-0.46875-1.043-1.043-1.043h-4.168c-0.57422 0-1.043 0.46875-1.043 1.043v4.168c0 0.57422 0.46875 1.043 1.043 1.043h4.168c0.57422 0 1.043-0.46875 1.043-1.043zm30.207 12.5h-22.918c-0.57422 0-1.043 0.46484-1.043 1.043 0 0.57422 0.46484 1.043 1.043 1.043h22.918c0.57422 0 1.043-0.46484 1.043-1.043 0-0.57422-0.46484-1.043-1.043-1.043zm-4.168 6.25h-18.75c-0.57422 0-1.043 0.46484-1.043 1.043 0 0.57422 0.46484 1.043 1.043 1.043h18.75c0.57422 0 1.043-0.46484 1.043-1.043 0-0.57422-0.46484-1.043-1.043-1.043zm-23.957-4.168v4.168c0 1.7227-1.4023 3.125-3.125 3.125h-4.168c-1.7227 0-3.125-1.4023-3.125-3.125v-4.168c0-1.7227 1.4023-3.125 3.125-3.125h4.168c1.7227 0 3.125 1.4023 3.125 3.125zm-2.082 0c0-0.57422-0.46875-1.043-1.043-1.043h-4.168c-0.57422 0-1.043 0.46875-1.043 1.043v4.168c0 0.57422 0.46875 1.043 1.043 1.043h4.168c0.57422 0 1.043-0.46875 1.043-1.043zm2.082 14.582v4.168c0 1.7227-1.4023 3.125-3.125 3.125h-4.168c-1.7227 0-3.125-1.4023-3.125-3.125v-4.168c0-1.7227 1.4023-3.125 3.125-3.125h4.168c1.7227 0 3.125 1.4023 3.125 3.125zm-2.082 0c0-0.57422-0.46875-1.043-1.043-1.043h-4.168c-0.57422 0-1.043 0.46875-1.043 1.043v4.168c0 0.57422 0.46875 1.043 1.043 1.043h4.168c0.57422 0 1.043-0.46875 1.043-1.043zm2.082 14.582v4.168c0 1.7227-1.4023 3.125-3.125 3.125h-4.168c-1.7227 0-3.125-1.4023-3.125-3.125v-4.168c0-1.7227 1.4023-3.125 3.125-3.125h4.168c1.7227 0 3.125 1.4023 3.125 3.125zm-2.082 0c0-0.57422-0.46875-1.043-1.043-1.043h-4.168c-0.57422 0-1.043 0.46875-1.043 1.043v4.168c0 0.57422 0.46875 1.043 1.043 1.043h4.168c0.57422 0 1.043-0.46875 1.043-1.043zm58.332 1.043c0 11.488-9.3477 20.832-20.832 20.832l-55.211 0.007812c-2.8711 0-5.207-2.3359-5.207-5.207v-75c0-2.8711 2.3359-5.207 5.207-5.207h10.609c0.42969-1.2109 1.5781-2.082 2.9336-2.082h7.5625c0.9375-3.6211 4.2539-6.25 8.0625-6.25 3.8047 0 7.125 2.6289 8.0625 6.25h7.5625c1.3555 0 2.5 0.875 2.9336 2.082h10.609c2.8711 0 5.207 2.3359 5.207 5.207v40.293c7.3477 3.2227 12.5 10.559 12.5 19.082zm-17.707-62.5h-10.418v4.168h8.332c0.57422 0 1.043 0.46484 1.043 1.043v36.562c1.4375 0.14453 2.832 0.43359 4.168 0.85547v-39.496c0-1.7227-1.4023-3.125-3.125-3.125zm-3.125 41.668v-35.41h-7.8711c-0.72266 1.2383-2.0508 2.082-3.5859 2.082h-29.168c-1.5352 0-2.8633-0.84375-3.5859-2.082h-7.8711v68.75h35.457c-1.6211-2.1484-2.8281-4.6133-3.5195-7.293h-10.062c-0.57422 0-1.043-0.46484-1.043-1.043 0-0.57422 0.46484-1.043 1.043-1.043h9.6367c-0.15625-1.0234-0.26172-2.0586-0.26172-3.125 0-0.35156 0.035156-0.69531 0.054687-1.043h-9.4297c-0.57422 0-1.043-0.46484-1.043-1.043 0-0.57422 0.46484-1.043 1.043-1.043h9.6367c0.33594-2.2188 1.0156-4.3203 1.9922-6.25h-11.629c-0.57422 0-1.043-0.46484-1.043-1.043 0-0.57422 0.46484-1.043 1.043-1.043h12.828c1.0234-1.5508 2.2578-2.9453 3.6484-4.168h-16.473c-0.57422 0-1.043-0.46484-1.043-1.043 0-0.57422 0.46484-1.043 1.043-1.043h19.289c3.1797-1.9688 6.9141-3.125 10.922-3.125zm-42.711-37.496c0 1.1484 0.93359 2.082 2.082 2.082h29.168c1.1484 0 2.082-0.93359 2.082-2.082v-5.207c0-0.57422-0.46875-1.043-1.043-1.043h-8.418c-0.51953 0-0.95703-0.37891-1.0312-0.89453-0.4375-3.0547-3.0938-5.3555-6.1797-5.3555-3.082 0-5.7383 2.3047-6.1797 5.3555-0.074219 0.51562-0.51172 0.89453-1.0312 0.89453h-8.418c-0.57422 0-1.043 0.46875-1.043 1.043v5.207zm33.688 77.082c-2.1797-1.0547-4.1562-2.457-5.832-4.168l-38.27 0.003906c-0.57422 0-1.043-0.46484-1.043-1.043v-70.832c0-0.57422 0.46484-1.043 1.043-1.043h8.332v-4.168h-10.418c-1.7227 0-3.125 1.4023-3.125 3.125v75c0 1.7227 1.4023 3.125 3.125 3.125zm27.77-18.75c0-10.34-8.4102-18.75-18.75-18.75-10.34 0-18.75 8.4102-18.75 18.75 0 10.34 8.4102 18.75 18.75 18.75 10.34 0 18.75-8.4102 18.75-18.75zm-9.0703-7.2539-12.297 12.297-7.0625-7.0664c-0.40625-0.40625-1.0664-0.40625-1.4727 0s-0.40625 1.0664 0 1.4727l7.8008 7.8008c0.19531 0.19531 0.46094 0.30469 0.73828 0.30469 0.27734 0 0.54297-0.10938 0.73828-0.30469l13.031-13.031c0.40625-0.40625 0.40625-1.0664 0-1.4727s-1.0664-0.40625-1.4727 0z"/>
<text x="0.0" y="117.5" font-size="5.0" font-weight="bold" font-family="Arbeit Regular, Helvetica, Arial-Unicode, Arial, Sans-serif" fill="#000000">Created by Arkinasi</text><text x="0.0" y="122.5" font-size="5.0" font-weight="bold" font-family="Arbeit Regular, Helvetica, Arial-Unicode, Arial, Sans-serif" fill="#000000">from Noun Project</text></svg>