<svg xmlns="http://www.w3.org/2000/svg" xmlns:svg="http://www.w3.org/2000/svg" viewBox="0 0 8.46667 10.583324375" version="1.1" xml:space="preserve" x="0px" y="0px"><g transform="translate(-170.92086,-157.95622)"><path style="" d="m 177.72875,163.24156 a 0.37572727,0.37634245 0 0 1 -0.37572,0.37634 0.37572727,0.37634245 0 0 1 -0.37573,-0.37634 0.37572727,0.37634245 0 0 1 0.37573,-0.37634 0.37572727,0.37634245 0 0 1 0.37572,0.37634 z" stroke-width="0.264585" stroke-linecap="round" stroke-linejoin="round"/><path style="color:#000000;" d="m 176.71875,161.17578 c -0.0691,-5.1e-4 -0.12695,0.0522 -0.13281,0.12109 l -0.16602,1.9336 c -0.006,0.0765 0.0542,0.14197 0.13086,0.14258 h 1.27344 c 0.18042,0 0.34034,-0.12377 0.38672,-0.29688 0.002,-0.008 0.003,-0.0155 0.004,-0.0234 l 0.11133,-1.29101 c 0.0272,-0.31527 -0.22656,-0.58593 -0.53711,-0.58594 z m 0.12109,0.26367 h 0.94532 c 0.16066,0.001 0.29136,0.13814 0.27734,0.30078 l -0.10938,1.26954 c -0.0208,0.0747 -0.0505,0.0996 -0.1289,0.0996 h -1.12891 z" fill="#000000" stroke-linecap="round" stroke-linejoin="round"/><path style="" d="m 175.25415,163.24155 a 0.37572783,0.37634161 0 0 1 -0.37573,0.37634 0.37572783,0.37634161 0 0 1 -0.37573,-0.37634 0.37572783,0.37634161 0 0 1 0.37573,-0.37634 0.37572783,0.37634161 0 0 1 0.37573,0.37634 z" stroke-width="0.264583" stroke-linecap="round" stroke-linejoin="round"/><path style="color:#000000;" d="m 172.94141,161.17578 a 0.1322915,0.1322915 0 0 0 -0.13282,0.13281 0.1322915,0.1322915 0 0 0 0.13282,0.13086 h 0.8125 a 0.1322915,0.1322915 0 0 0 0.13086,-0.13086 0.1322915,0.1322915 0 0 0 -0.13086,-0.13281 z" fill="#000000" stroke-linecap="round" stroke-linejoin="round"/><path style="color:#000000;" d="m 172.11328,161.17578 a 0.1322915,0.1322915 0 0 0 -0.13281,0.13281 0.1322915,0.1322915 0 0 0 0.13281,0.13086 h 0.27539 a 0.1322915,0.1322915 0 0 0 0.13281,-0.13086 0.1322915,0.1322915 0 0 0 -0.13281,-0.13281 z" fill="#000000" stroke-linecap="round" stroke-linejoin="round"/><path style="color:#000000;" d="m 173.30273,161.86523 a 0.1322915,0.1322915 0 0 0 -0.13281,0.13282 0.1322915,0.1322915 0 0 0 0.13281,0.13281 h 1.30079 a 0.1322915,0.1322915 0 0 0 0.13085,-0.13281 0.1322915,0.1322915 0 0 0 -0.13085,-0.13282 z" fill="#000000" stroke-linecap="round" stroke-linejoin="round"/><path style="color:#000000;" d="m 172.47461,161.86523 a 0.1322915,0.1322915 0 0 0 -0.13281,0.13282 0.1322915,0.1322915 0 0 0 0.13281,0.13281 H 172.75 a 0.1322915,0.1322915 0 0 0 0.13281,-0.13281 0.1322915,0.1322915 0 0 0 -0.13281,-0.13282 z" fill="#000000" stroke-linecap="round" stroke-linejoin="round"/><path style="color:#000000;" d="m 173.07422,162.55664 a 0.1322915,0.1322915 0 0 0 -0.13281,0.13281 0.1322915,0.1322915 0 0 0 0.13281,0.13282 h 1.02148 a 0.1322915,0.1322915 0 0 0 0.13282,-0.13282 0.1322915,0.1322915 0 0 0 -0.13282,-0.13281 z" fill="#000000" stroke-linecap="round" stroke-linejoin="round"/><path style="color:#000000;" d="m 172.24609,162.55664 a 0.1322915,0.1322915 0 0 0 -0.13281,0.13281 0.1322915,0.1322915 0 0 0 0.13281,0.13282 h 0.27539 a 0.1322915,0.1322915 0 0 0 0.13282,-0.13282 0.1322915,0.1322915 0 0 0 -0.13282,-0.13281 z" fill="#000000" stroke-linecap="round" stroke-linejoin="round"/><path style="color:#000000;" d="m 173.97852,160.76172 c -0.18852,0 -0.32975,0.15945 -0.3418,0.33594 l -0.0156,0.20117 0.26404,0.0172 0.0156,-0.20118 c 0.004,-0.0578 0.0351,-0.0898 0.0781,-0.0898 h 2.54687 c 0.0433,0 0.0781,0.0332 0.0781,0.0801 l -0.17383,2.0039 h -2.86328 c -0.0735,-2.9e-4 -0.13311,0.0593 -0.13282,0.13282 7.9e-4,0.0727 0.0601,0.13115 0.13282,0.13086 h 2.98437 c 0.0691,5.1e-4 0.12696,-0.0522 0.13281,-0.1211 0.0604,-0.71553 0.12514,-1.43085 0.1836,-2.14646 0,-0.18793 -0.15349,-0.34375 -0.3418,-0.34375 z" fill="#000000" stroke-linecap="round" stroke-linejoin="round"/><g><path style="color:#000000;" d="m 173.70391,161.99849 -0.0495,0.69059" fill="#000000" stroke-linecap="round" stroke-linejoin="round"/><path style="color:#000000;" d="m 173.57227,161.98828 -0.0508,0.69141 0.26563,0.0195 0.0488,-0.69141 z" fill="#000000" stroke-linecap="round" stroke-linejoin="round"/></g></g><text x="0" y="23.4666595" fill="#000000" font-size="5px" font-weight="bold" font-family="'Helvetica Neue', Helvetica, Arial-Unicode, Arial, Sans-serif">Created by Meko</text><text x="0" y="28.4666595" fill="#000000" font-size="5px" font-weight="bold" font-family="'Helvetica Neue', Helvetica, Arial-Unicode, Arial, Sans-serif">from the Noun Project</text></svg>